<svg xmlns="http://www.w3.org/2000/svg" xmlns:xlink="http://www.w3.org/1999/xlink" width="1000" zoomAndPan="magnify" viewBox="0 0 750 225" height="300" preserveAspectRatio="xMidYMid meet" version="1.0"><defs><g/><clipPath id="222a37a388"><rect x="0" width="655" y="0" height="225"/></clipPath></defs><g transform="matrix(1, 0, 0, 1, 0, -0.000000000000008531)"><g clip-path="url(#222a37a388)"><g fill="#000000" fill-opacity="1"><g transform="translate(-13.242842, 172.646379)"><g><path d="M 22.109375 0 L 22.109375 -142.90625 L 45.046875 -142.90625 L 45.046875 -19.25 L 110.140625 -19.25 L 110.140625 0 Z M 22.109375 0 "/></g></g></g><g fill="#000000" fill-opacity="1"><g transform="translate(96.890513, 172.646379)"><g><path d="M 67.96875 -124.890625 C 62.238281 -124.890625 58.242188 -126.046875 55.984375 -128.359375 C 53.734375 -130.679688 52.609375 -133.550781 52.609375 -136.96875 L 52.609375 -141.265625 C 52.609375 -144.679688 53.734375 -147.546875 55.984375 -149.859375 C 58.242188 -152.179688 62.171875 -153.34375 67.765625 -153.34375 C 73.492188 -153.34375 77.484375 -152.179688 79.734375 -149.859375 C 81.992188 -147.546875 83.125 -144.679688 83.125 -141.265625 L 83.125 -136.96875 C 83.125 -133.550781 81.992188 -130.679688 79.734375 -128.359375 C 77.484375 -126.046875 73.5625 -124.890625 67.96875 -124.890625 Z M 20.671875 -18.015625 L 56.71875 -18.015625 L 56.71875 -87.625 L 20.671875 -87.625 L 20.671875 -105.640625 L 79.03125 -105.640625 L 79.03125 -18.015625 L 112.8125 -18.015625 L 112.8125 0 L 20.671875 0 Z M 20.671875 -18.015625 "/></g></g></g><g fill="#000000" fill-opacity="1"><g transform="translate(207.023869, 172.646379)"><g><path d="M 67.765625 0 C 58.484375 0 51.65625 -2.488281 47.28125 -7.46875 C 42.914062 -12.457031 40.734375 -18.90625 40.734375 -26.8125 L 40.734375 -87.625 L 8.1875 -87.625 L 8.1875 -105.640625 L 31.328125 -105.640625 C 35.285156 -105.640625 38.082031 -106.425781 39.71875 -108 C 41.351562 -109.570312 42.171875 -112.40625 42.171875 -116.5 L 42.171875 -142.90625 L 63.0625 -142.90625 L 63.0625 -105.640625 L 108.09375 -105.640625 L 108.09375 -87.625 L 63.0625 -87.625 L 63.0625 -18.015625 L 108.09375 -18.015625 L 108.09375 0 Z M 67.765625 0 "/></g></g></g><g fill="#000000" fill-opacity="1"><g transform="translate(317.157224, 172.646379)"><g><path d="M 67.96875 -124.890625 C 62.238281 -124.890625 58.242188 -126.046875 55.984375 -128.359375 C 53.734375 -130.679688 52.609375 -133.550781 52.609375 -136.96875 L 52.609375 -141.265625 C 52.609375 -144.679688 53.734375 -147.546875 55.984375 -149.859375 C 58.242188 -152.179688 62.171875 -153.34375 67.765625 -153.34375 C 73.492188 -153.34375 77.484375 -152.179688 79.734375 -149.859375 C 81.992188 -147.546875 83.125 -144.679688 83.125 -141.265625 L 83.125 -136.96875 C 83.125 -133.550781 81.992188 -130.679688 79.734375 -128.359375 C 77.484375 -126.046875 73.5625 -124.890625 67.96875 -124.890625 Z M 20.671875 -18.015625 L 56.71875 -18.015625 L 56.71875 -87.625 L 20.671875 -87.625 L 20.671875 -105.640625 L 79.03125 -105.640625 L 79.03125 -18.015625 L 112.8125 -18.015625 L 112.8125 0 L 20.671875 0 Z M 20.671875 -18.015625 "/></g></g></g><g fill="#000000" fill-opacity="1"><g transform="translate(427.29058, 172.646379)"><g><path d="M 116.703125 11.46875 C 116.703125 22.382812 112.128906 30.4375 102.984375 35.625 C 93.835938 40.8125 79.914062 43.40625 61.21875 43.40625 C 52.070312 43.40625 44.394531 42.820312 38.1875 41.65625 C 31.976562 40.5 26.925781 38.828125 23.03125 36.640625 C 19.144531 34.460938 16.347656 31.800781 14.640625 28.65625 C 12.929688 25.519531 12.078125 21.972656 12.078125 18.015625 C 12.078125 12.285156 13.679688 7.816406 16.890625 4.609375 C 20.097656 1.398438 24.632812 -0.953125 30.5 -2.453125 L 30.5 -4.5 C 26.957031 -5.863281 24.125 -7.773438 22 -10.234375 C 19.882812 -12.691406 18.828125 -15.898438 18.828125 -19.859375 C 18.828125 -25.046875 20.601562 -28.96875 24.15625 -31.625 C 27.707031 -34.289062 32.28125 -36.304688 37.875 -37.671875 L 37.875 -38.6875 C 31.457031 -41.695312 26.472656 -45.929688 22.921875 -51.390625 C 19.378906 -56.847656 17.609375 -63.398438 17.609375 -71.046875 C 17.609375 -76.640625 18.628906 -81.722656 20.671875 -86.296875 C 22.722656 -90.867188 25.625 -94.757812 29.375 -97.96875 C 33.132812 -101.175781 37.640625 -103.664062 42.890625 -105.4375 C 48.148438 -107.207031 54.050781 -108.09375 60.59375 -108.09375 C 67.96875 -108.09375 74.585938 -106.9375 80.453125 -104.625 L 80.453125 -108.09375 C 80.453125 -112.1875 81.613281 -115.597656 83.9375 -118.328125 C 86.257812 -121.066406 89.8125 -122.4375 94.59375 -122.4375 L 113.828125 -122.4375 L 113.828125 -104.828125 L 89.265625 -104.828125 L 89.265625 -99.90625 C 93.898438 -96.769531 97.445312 -92.78125 99.90625 -87.9375 C 102.363281 -83.09375 103.59375 -77.460938 103.59375 -71.046875 C 103.59375 -65.453125 102.566406 -60.367188 100.515625 -55.796875 C 98.472656 -51.222656 95.570312 -47.332031 91.8125 -44.125 C 88.0625 -40.914062 83.554688 -38.457031 78.296875 -36.75 C 73.046875 -35.039062 67.144531 -34.1875 60.59375 -34.1875 C 55.957031 -34.1875 51.59375 -34.597656 47.5 -35.421875 C 45.039062 -34.734375 42.582031 -33.570312 40.125 -31.9375 C 37.664062 -30.300781 36.4375 -28.050781 36.4375 -25.1875 C 36.4375 -21.90625 38.003906 -19.851562 41.140625 -19.03125 C 44.285156 -18.21875 48.179688 -17.8125 52.828125 -17.8125 L 76.578125 -17.8125 C 90.765625 -17.8125 101 -15.113281 107.28125 -9.71875 C 113.5625 -4.332031 116.703125 2.726562 116.703125 11.46875 Z M 95.8125 12.890625 C 95.8125 9.347656 94.378906 6.519531 91.515625 4.40625 C 88.648438 2.289062 83.460938 1.234375 75.953125 1.234375 L 39.3125 1.234375 C 34.125 3.679688 31.53125 7.640625 31.53125 13.109375 C 31.53125 17.066406 33.203125 20.476562 36.546875 23.34375 C 39.890625 26.207031 45.453125 27.640625 53.234375 27.640625 L 69.8125 27.640625 C 78.28125 27.640625 84.726562 26.375 89.15625 23.84375 C 93.59375 21.320312 95.8125 17.671875 95.8125 12.890625 Z M 60.59375 -49.546875 C 67.832031 -49.546875 73.15625 -51.25 76.5625 -54.65625 C 79.976562 -58.070312 81.6875 -62.644531 81.6875 -68.375 L 81.6875 -73.90625 C 81.6875 -79.644531 79.976562 -84.21875 76.5625 -87.625 C 73.15625 -91.039062 67.832031 -92.75 60.59375 -92.75 C 53.363281 -92.75 48.039062 -91.039062 44.625 -87.625 C 41.21875 -84.21875 39.515625 -79.644531 39.515625 -73.90625 L 39.515625 -68.375 C 39.515625 -62.644531 41.21875 -58.070312 44.625 -54.65625 C 48.039062 -51.25 53.363281 -49.546875 60.59375 -49.546875 Z M 60.59375 -49.546875 "/></g></g></g><g fill="#000000" fill-opacity="1"><g transform="translate(537.423935, 172.646379)"><g><path d="M 61.421875 2.453125 C 53.640625 2.453125 46.644531 1.15625 40.4375 -1.4375 C 34.226562 -4.03125 28.972656 -7.710938 24.671875 -12.484375 C 20.367188 -17.265625 17.054688 -23.066406 14.734375 -29.890625 C 12.421875 -36.710938 11.265625 -44.359375 11.265625 -52.828125 C 11.265625 -61.285156 12.421875 -68.925781 14.734375 -75.75 C 17.054688 -82.570312 20.367188 -88.367188 24.671875 -93.140625 C 28.972656 -97.921875 34.226562 -101.609375 40.4375 -104.203125 C 46.644531 -106.796875 53.640625 -108.09375 61.421875 -108.09375 C 69.203125 -108.09375 76.195312 -106.796875 82.40625 -104.203125 C 88.613281 -101.609375 93.867188 -97.921875 98.171875 -93.140625 C 102.472656 -88.367188 105.78125 -82.570312 108.09375 -75.75 C 110.414062 -68.925781 111.578125 -61.285156 111.578125 -52.828125 C 111.578125 -44.359375 110.414062 -36.710938 108.09375 -29.890625 C 105.78125 -23.066406 102.472656 -17.265625 98.171875 -12.484375 C 93.867188 -7.710938 88.613281 -4.03125 82.40625 -1.4375 C 76.195312 1.15625 69.203125 2.453125 61.421875 2.453125 Z M 61.421875 -15.15625 C 69.609375 -15.15625 76.125 -17.644531 80.96875 -22.625 C 85.8125 -27.601562 88.234375 -35.007812 88.234375 -44.84375 L 88.234375 -60.8125 C 88.234375 -70.632812 85.8125 -78.035156 80.96875 -83.015625 C 76.125 -88.003906 69.609375 -90.5 61.421875 -90.5 C 53.234375 -90.5 46.710938 -88.003906 41.859375 -83.015625 C 37.015625 -78.035156 34.59375 -70.632812 34.59375 -60.8125 L 34.59375 -44.84375 C 34.59375 -35.007812 37.015625 -27.601562 41.859375 -22.625 C 46.710938 -17.644531 53.234375 -15.15625 61.421875 -15.15625 Z M 61.421875 -15.15625 "/></g></g></g></g></g></svg>