<svg xmlns="http://www.w3.org/2000/svg" xmlns:xlink="http://www.w3.org/1999/xlink" width="1000" zoomAndPan="magnify" viewBox="0 0 750 749.999995" height="1000" preserveAspectRatio="xMidYMid meet" version="1.0"><defs><g/><clipPath id="7f9318eb93"><path d="M 52.5 0 L 697.5 0 C 711.425781 0 724.777344 5.53125 734.625 15.375 C 744.46875 25.222656 750 38.574219 750 52.5 L 750 697.5 C 750 711.425781 744.46875 724.777344 734.625 734.625 C 724.777344 744.46875 711.425781 750 697.5 750 L 52.5 750 C 38.574219 750 25.222656 744.46875 15.375 734.625 C 5.53125 724.777344 0 711.425781 0 697.5 L 0 52.5 C 0 38.574219 5.53125 25.222656 15.375 15.375 C 25.222656 5.53125 38.574219 0 52.5 0 Z M 52.5 0 " clip-rule="nonzero"/></clipPath><clipPath id="709f217ad1"><path d="M 0 0 L 750 0 L 750 750 L 0 750 Z M 0 0 " clip-rule="nonzero"/></clipPath><clipPath id="b932c9d62f"><path d="M 52.5 0 L 697.5 0 C 711.425781 0 724.777344 5.53125 734.625 15.375 C 744.46875 25.222656 750 38.574219 750 52.5 L 750 697.5 C 750 711.425781 744.46875 724.777344 734.625 734.625 C 724.777344 744.46875 711.425781 750 697.5 750 L 52.5 750 C 38.574219 750 25.222656 744.46875 15.375 734.625 C 5.53125 724.777344 0 711.425781 0 697.5 L 0 52.5 C 0 38.574219 5.53125 25.222656 15.375 15.375 C 25.222656 5.53125 38.574219 0 52.5 0 Z M 52.5 0 " clip-rule="nonzero"/></clipPath><clipPath id="b7360a31b3"><rect x="0" width="750" y="0" height="750"/></clipPath><clipPath id="2c6e9e46d8"><rect x="0" width="431" y="0" height="750"/></clipPath></defs><g clip-path="url(#7f9318eb93)"><g transform="matrix(1, 0, 0, 1, 0, -0.000000000000042435)"><g clip-path="url(#b7360a31b3)"><g clip-path="url(#709f217ad1)"><g clip-path="url(#b932c9d62f)"><rect x="-165" width="1080" fill="#18181b" height="1079.999992" y="-164.999999" fill-opacity="1"/></g></g></g></g></g><g transform="matrix(1, 0, 0, 1, 161, -0.000000000000042435)"><g clip-path="url(#2c6e9e46d8)"><g fill="#ffffff" fill-opacity="1"><g transform="translate(0.292505, 621.921684)"><g><path d="M 65.53125 0 L 65.53125 -497.15625 L 173.078125 -497.15625 L 173.078125 -87.609375 L 386.75 -87.609375 L 386.75 0 Z M 65.53125 0 "/></g></g></g></g></g></svg>